<svg width="578" height="245" viewBox="0 0 578 245" fill="none" xmlns="http://www.w3.org/2000/svg">
<path d="M96.3657 244.04C77.5143 244.04 59.4484 241.571 42.168 236.634C24.8876 231.472 10.9735 224.852 0.425685 216.772L18.9404 175.703C29.0394 182.885 40.9337 188.832 54.6234 193.545C68.5375 198.033 82.5638 200.277 96.7023 200.277C107.475 200.277 116.115 199.268 122.623 197.248C129.356 195.004 134.293 191.974 137.435 188.159C140.577 184.344 142.148 179.967 142.148 175.03C142.148 168.746 139.679 163.809 134.742 160.218C129.804 156.403 123.296 153.373 115.217 151.129C107.138 148.661 98.1611 146.416 88.2865 144.397C78.6364 142.152 68.8741 139.459 58.9996 136.317C49.3495 133.176 40.4848 129.136 32.4057 124.199C24.3265 119.261 17.7061 112.753 12.5444 104.674C7.60716 96.5949 5.13853 86.2716 5.13853 73.704C5.13853 60.2387 8.72926 48.0078 15.9107 37.0111C23.3166 25.7901 34.3133 16.9254 48.9006 10.4172C63.7124 3.68462 82.2272 0.318302 104.445 0.318302C119.257 0.318302 133.844 2.11367 148.207 5.7044C162.57 9.07071 175.25 14.2324 186.246 21.1895L169.415 62.5951C158.418 56.3114 147.421 51.7107 136.425 48.7932C125.428 45.6514 114.656 44.0804 104.108 44.0804C93.5604 44.0804 84.9202 45.3147 78.1876 47.7833C71.455 50.252 66.6299 53.5061 63.7124 57.5457C60.795 61.3608 59.3362 65.8492 59.3362 71.0109C59.3362 77.0703 61.8048 82.0076 66.7421 85.8227C71.6794 89.4135 78.1876 92.3309 86.2667 94.5751C94.3459 96.8194 103.211 99.0636 112.861 101.308C122.735 103.552 132.497 106.133 142.148 109.05C152.022 111.968 160.999 115.895 169.078 120.832C177.157 125.77 183.665 132.278 188.603 140.357C193.764 148.436 196.345 158.647 196.345 170.991C196.345 184.231 192.642 196.35 185.236 207.347C177.831 218.343 166.722 227.208 151.91 233.941C137.323 240.673 118.808 244.04 96.3657 244.04ZM233.609 240V4.35787H288.143V240H233.609ZM313.096 240L418.125 4.35787H471.986L577.352 240H520.124L433.947 31.9617H455.491L368.977 240H313.096ZM365.61 189.505L380.086 148.1H501.273L516.085 189.505H365.61Z" fill="white"/>
</svg>
