<svg width="289" height="125" viewBox="0 0 289 125" fill="none" xmlns="http://www.w3.org/2000/svg">
<path d="M288.85 27.07C288.48 10.7 268.87 4.77 254.65 2.08C219.02 -2.94 181.06 1.75 144.72 10.41C135.88 12.67 126.88 15.11 118.03 17.87C119.61 16.17 120.88 14.24 121.67 12.23C124.18 5.39 120.41 0 113.57 0C113.03 0 112.67 0 112.13 0C105.65 0.54 98.6298 5.76 96.1198 12.24C93.6098 18.9 97.2098 24.29 104.22 24.29C106.92 24.29 109.62 23.57 112.14 22.31C114.26 21.25 116.19 19.8 117.82 18.11C127.28 17.25 136.92 16.9 146.89 17.08C178.7 17.06 207.4 21.28 229.1 28.2H229.08L217.57 44.76C214.87 48.54 212.18 52.5 210.39 55.74C208.59 58.8 206.61 61.86 205.18 64.74H204.82C205.9 60.24 206.79 54.3 207.33 47.47C207.69 46.21 207.51 45.49 207.69 44.95L208.94 28.22L183.03 28.05L159.84 69.98L145.64 95.36L159.85 95.53H170.1L183.58 68.89C184.3 66.91 185.74 64.57 186.46 62.59C187.18 60.97 188.26 58.81 188.97 56.65C188.62 58.45 188.26 60.79 188.08 62.94C187.54 64.92 187.55 67.44 187.36 69.78L185.39 95.51L200.5 95.68L218.3 69.76C219.74 67.6 221.53 65.08 222.97 62.74C224.04 60.76 225.49 58.42 226.38 56.8C225.66 58.78 225.49 61.12 224.77 63.1C224.05 64.72 223.51 67.06 222.61 69.04L215.96 95.67H240.61L252.82 38.46C262.33 44.16 268.33 50.69 269.77 57.68C278.05 50.66 284.87 42.56 287.94 33.74C288.47 31.58 288.83 29.6 288.83 27.8V27.08L288.85 27.07Z" fill="#1B1464"/>
<path d="M141.08 107.71C96.05 107.73 57.24 99.2403 35.97 86.5703H41.47L44.52 78.2903H35.88L33.41 84.9803C25.32 79.6703 20.24 73.7004 18.93 67.3604C10.7 74.3404 3.91997 82.3903 0.879974 91.1503C0.349974 93.3003 0 95.2603 0 97.0503V97.7703C0.37 114.04 19.86 119.93 33.98 122.6C69.39 127.59 107.11 122.92 143.23 114.32C152.34 111.99 161.65 109.48 170.76 106.61C161.1 107.51 151.27 107.87 141.08 107.7V107.71Z" fill="#1B1464"/>
<path d="M71.8498 53.2699L74.8998 44.6299H68.9598H66.2698L63.0298 53.0999L68.9698 53.0899L71.8498 53.2699Z" fill="#1B1464"/>
<path d="M108.75 95.3499H112.17L134.3 95.3399L151.37 49.9899H159.83H165.59L173.86 28.0299L159.82 28.0399L120.24 27.8799L112.15 48.9299L111.79 49.8299H112.15L126 50.0099L112.17 86.1799L108.75 95.3499Z" fill="#1B1464"/>
<path d="M59.4399 62.2701L59.7999 61.3701H59.4399L50.9799 61.3801L47.9199 69.8401L56.5599 70.0101L59.4399 62.2701Z" fill="#1B1464"/>
<path d="M59.27 86.74H59.45H67.91L64.67 95.19H68.99L88.96 95.18H90.04L112.14 36.88L115.56 27.88H112.14L90.18 27.71L88.93 31.13L83.72 44.81H88.94L92.71 44.8L89.3 53.08H88.94L80.66 53.09L77.43 61.36L68.97 61.37H68.79L65.56 70H68.98H74.2L70.96 78.28H68.98L62.51 78.11L59.45 86.02L59.27 86.74Z" fill="#1B1464"/>
</svg>
