<svg width="289" height="125" viewBox="0 0 289 125" fill="none" xmlns="http://www.w3.org/2000/svg">
<path d="M288.12 27.01C287.75 10.68 268.19 4.77 254.01 2.09C218.48 -2.92 180.62 1.77 144.37 10.39C135.56 12.64 126.57 15.08 117.75 17.83C119.33 16.13 120.59 14.21 121.38 12.2C123.89 5.38 120.12 0 113.3 0C112.76 0 112.41 0 111.87 0C105.41 0.54 98.4099 5.74999 95.8999 12.21C93.3899 18.85 96.9799 24.23 103.98 24.23C106.67 24.23 109.36 23.51 111.88 22.25C113.99 21.19 115.92 19.74 117.54 18.06C126.98 17.21 136.59 16.86 146.54 17.03C178.26 17.01 206.89 21.22 228.54 28.12H228.52L217.04 44.64C214.35 48.41 211.66 52.36 209.88 55.59C208.09 58.65 206.11 61.69 204.68 64.57H204.32C205.4 60.09 206.29 54.16 206.83 47.34C207.19 46.08 207.01 45.37 207.19 44.83L208.44 28.14L182.6 27.97L159.47 69.79L145.31 95.1L159.49 95.27H169.72L183.17 68.7C183.89 66.73 185.32 64.39 186.04 62.42C186.75 60.81 187.83 58.65 188.54 56.5C188.19 58.29 187.83 60.63 187.65 62.78C187.12 64.76 187.12 67.27 186.94 69.6L184.98 95.26L200.05 95.43L217.81 69.58C219.24 67.42 221.04 64.91 222.47 62.58C223.54 60.6 224.98 58.27 225.87 56.65C225.16 58.63 224.98 60.96 224.26 62.93C223.54 64.55 223.01 66.88 222.11 68.85L215.48 95.41H240.07L252.24 38.35C261.73 44.04 267.71 50.55 269.15 57.52C277.41 50.52 284.21 42.44 287.27 33.65C287.8 31.49 288.16 29.52 288.16 27.73V27.01H288.12Z" fill="#1B1464"/>
<path d="M140.73 107.44C95.82 107.46 57.11 98.9904 35.89 86.3604H41.37L44.41 78.1004H35.8L33.34 84.7704C25.28 79.4804 20.2 73.5204 18.89 67.1904C10.69 74.1504 3.92 82.1804 0.880001 90.9204C0.350001 93.0604 0 95.0204 0 96.8104V97.5304C0.36 113.76 19.81 119.63 33.9 122.3C69.21 127.28 106.84 122.62 142.86 114.05C151.95 111.72 161.23 109.22 170.32 106.36C160.69 107.26 150.88 107.62 140.72 107.45L140.73 107.44Z" fill="#1B1464"/>
<path d="M71.6899 53.1403L74.7299 44.5303H68.8099H66.1199L62.8999 52.9703H68.8099L71.6899 53.1403Z" fill="#1B1464"/>
<path d="M108.49 95.1203H111.9L133.97 95.1103L151 49.8803L159.44 49.8703H165.18L173.43 27.9703L159.43 27.9803L119.95 27.8203L111.88 48.8203L111.52 49.7103H111.88L125.7 49.8903L111.9 85.9603L108.49 95.1203Z" fill="#1B1464"/>
<path d="M59.3101 62.1197L59.6701 61.2197H59.3101L50.8701 61.2297L47.8301 69.6597L56.4401 69.8397L59.3101 62.1197Z" fill="#1B1464"/>
<path d="M59.1401 86.5304H59.3201L67.7501 86.5204L64.5301 94.9604H68.8301L88.7601 94.9504H89.8301L111.88 36.7904L115.28 27.8204H111.87L89.9701 27.6504L88.7201 31.0604L83.5301 44.7004H88.7301H92.5001L89.0901 52.9604H88.7301H80.4801L77.2501 61.2204H68.8201H68.6401L65.4101 69.8304H68.8201H74.0301L70.8001 78.0904H68.8301L62.3701 77.9104L59.3201 85.8104L59.1401 86.5304Z" fill="#1B1464"/>
</svg>
