<svg width="911" height="126" viewBox="0 0 911 126" fill="none" xmlns="http://www.w3.org/2000/svg">
<path d="M375.29 121.34L371.76 115.96C371.42 115.98 371.06 116.01 370.68 116.01H366.21V121.35H364.29V104.53H370.68C374.89 104.53 377.32 106.6 377.32 110.18C377.32 112.94 375.95 114.84 373.52 115.61L377.49 121.35H375.3L375.29 121.34ZM370.67 114.23C373.72 114.23 375.45 112.86 375.45 110.22C375.45 107.58 373.72 106.3 370.67 106.3H366.2V114.23H370.67Z" fill="white"/>
<path d="M394.7 115.721H384.36C384.67 118.221 386.47 119.851 388.95 119.851C390.51 119.851 391.88 119.271 392.87 118.241L393.9 119.321C392.7 120.641 390.92 121.411 388.8 121.411C385.08 121.411 382.5 118.791 382.5 115.021C382.5 111.251 385.1 108.651 388.77 108.631C392.86 108.631 394.88 111.441 394.68 115.721H394.7ZM393.02 114.231C392.9 111.781 391.27 110.191 388.79 110.191C386.31 110.191 384.63 111.781 384.37 114.231H393.02Z" fill="white"/>
<path d="M408.19 121.341V119.371C407.18 120.741 405.57 121.411 403.55 121.411C400.93 121.411 399.25 119.751 399.25 117.591C399.25 115.431 401 113.981 403.99 113.961H408.15V113.171C408.15 111.321 407 110.191 404.76 110.191C403.37 110.191 402.07 110.721 400.75 111.661L399.96 110.341C401.59 109.261 402.97 108.631 405.13 108.631C408.26 108.631 409.98 110.291 410.01 112.981L410.03 121.341H408.2H408.19ZM408.16 116.991V115.451H404.22C402.11 115.451 401 116.101 401 117.521C401 118.941 402.13 119.851 403.91 119.851C406.05 119.851 407.68 118.791 408.16 116.991Z" fill="white"/>
<path d="M421.67 110.31C419.05 110.31 417.18 112.23 417.18 115.02C417.18 117.81 419.05 119.76 421.67 119.76C423.33 119.76 424.7 119.18 425.59 118.13L426.67 119.24C425.54 120.61 423.79 121.43 421.6 121.43C417.92 121.43 415.33 118.81 415.33 115.04C415.33 111.27 417.95 108.65 421.6 108.65C423.64 108.65 425.33 109.35 426.48 110.52L425.45 111.82C424.49 110.88 423.22 110.33 421.68 110.33L421.67 110.31Z" fill="white"/>
<path d="M438.9 108.631V110.461C436.23 110.411 434.57 112.071 434.36 114.621V121.351H432.49V108.711H434.36V111.521C435.2 109.671 436.76 108.661 438.9 108.631Z" fill="white"/>
<path d="M454.74 115.721H444.4C444.71 118.221 446.51 119.851 448.99 119.851C450.55 119.851 451.92 119.271 452.91 118.241L453.94 119.321C452.74 120.641 450.96 121.411 448.84 121.411C445.12 121.411 442.54 118.791 442.54 115.021C442.54 111.251 445.14 108.651 448.81 108.631C452.9 108.631 454.92 111.441 454.72 115.721H454.74ZM453.06 114.231C452.94 111.781 451.31 110.191 448.83 110.191C446.35 110.191 444.67 111.781 444.41 114.231H453.06Z" fill="white"/>
<path d="M471.99 103.511V121.341H470.12V118.621C469.18 120.401 467.45 121.431 465.19 121.431C461.58 121.431 459.08 118.761 459.08 114.991C459.08 111.221 461.58 108.601 465.16 108.601C467.42 108.601 469.17 109.631 470.11 111.441V103.511H471.98H471.99ZM470.12 115.051C470.12 112.261 468.22 110.241 465.55 110.241C462.88 110.241 460.96 112.261 460.96 115.051C460.96 117.841 462.86 119.831 465.55 119.831C468.24 119.831 470.12 117.841 470.12 115.051Z" fill="white"/>
<path d="M481.22 105.071C481.22 105.791 480.69 106.341 479.99 106.341C479.29 106.341 478.76 105.791 478.76 105.071C478.76 104.351 479.29 103.801 479.99 103.801C480.69 103.801 481.22 104.331 481.22 105.071ZM480.93 108.701V121.341H479.08V108.701H480.93Z" fill="white"/>
<path d="M494.44 120.48C493.55 121.08 492.59 121.421 491.58 121.421C489.73 121.441 488.36 120.341 488.36 117.841V110.561H486.53V109.091H488.36V105.771H490.21V109.091H494.22V110.561H490.21V117.531C490.21 119.071 490.81 119.691 491.89 119.691C492.54 119.671 493.21 119.45 493.91 119.04L494.44 120.48Z" fill="white"/>
<path d="M507.54 121.341V119.371C506.53 120.741 504.92 121.411 502.9 121.411C500.28 121.411 498.6 119.751 498.6 117.591C498.6 115.431 500.35 113.981 503.34 113.961H507.5V113.171C507.5 111.321 506.35 110.191 504.11 110.191C502.72 110.191 501.42 110.721 500.1 111.661L499.31 110.341C500.94 109.261 502.32 108.631 504.48 108.631C507.61 108.631 509.33 110.291 509.36 112.981L509.38 121.341H507.55H507.54ZM507.52 116.991V115.451H503.58C501.47 115.451 500.36 116.101 500.36 117.521C500.36 118.941 501.49 119.851 503.27 119.851C505.41 119.851 507.04 118.791 507.52 116.991Z" fill="white"/>
<path d="M527.58 103.511V121.341H525.71V118.621C524.77 120.401 523.04 121.431 520.78 121.431C517.17 121.431 514.67 118.761 514.67 114.991C514.67 111.221 517.17 108.601 520.75 108.601C523.01 108.601 524.76 109.631 525.7 111.441V103.511H527.57H527.58ZM525.71 115.051C525.71 112.261 523.81 110.241 521.14 110.241C518.47 110.241 516.55 112.261 516.55 115.051C516.55 117.841 518.45 119.831 521.14 119.831C523.83 119.831 525.71 117.841 525.71 115.051Z" fill="white"/>
<path d="M542.53 121.341V119.371C541.52 120.741 539.91 121.411 537.89 121.411C535.27 121.411 533.59 119.751 533.59 117.591C533.59 115.431 535.34 113.981 538.33 113.961H542.49V113.171C542.49 111.321 541.34 110.191 539.1 110.191C537.71 110.191 536.41 110.721 535.09 111.661L534.3 110.341C535.93 109.261 537.31 108.631 539.47 108.631C542.6 108.631 544.33 110.291 544.35 112.981L544.37 121.341H542.54H542.53ZM542.51 116.991V115.451H538.57C536.46 115.451 535.35 116.101 535.35 117.521C535.35 118.941 536.48 119.851 538.26 119.851C540.4 119.851 542.03 118.791 542.51 116.991Z" fill="white"/>
<path d="M571.47 115.721H561.13C561.44 118.221 563.24 119.851 565.72 119.851C567.28 119.851 568.65 119.271 569.64 118.241L570.67 119.321C569.47 120.641 567.69 121.411 565.57 121.411C561.85 121.411 559.27 118.791 559.27 115.021C559.27 111.251 561.87 108.651 565.54 108.631C569.63 108.631 571.65 111.441 571.45 115.721H571.47ZM569.78 114.231C569.66 111.781 568.03 110.191 565.55 110.191C563.07 110.191 561.39 111.781 561.13 114.231H569.78Z" fill="white"/>
<path d="M588.67 113.561V121.351H586.8V114.041C586.8 111.781 585.45 110.441 583.22 110.441C580.72 110.461 579.18 112.121 578.97 114.571V121.351H577.1V108.711H578.97V111.501C579.86 109.581 581.56 108.671 583.87 108.641C586.9 108.641 588.68 110.491 588.68 113.571L588.67 113.561Z" fill="white"/>
<path d="M615.76 117.04H606.6L604.72 121.341H602.68L610.23 104.521H612.22L619.74 121.341H617.65L615.75 117.04H615.76ZM614.99 115.26L611.17 106.611L607.4 115.26H615H614.99Z" fill="white"/>
<path d="M626.53 103.511V121.341H624.66V103.511H626.53Z" fill="white"/>
<path d="M640.15 120.48C639.26 121.08 638.3 121.421 637.29 121.421C635.44 121.441 634.07 120.341 634.07 117.841V110.561H632.24V109.091H634.07V105.771H635.92V109.091H639.93V110.561H635.92V117.531C635.92 119.071 636.52 119.691 637.6 119.691C638.25 119.671 638.92 119.45 639.62 119.04L640.15 120.48Z" fill="white"/>
<path d="M653.25 121.341V119.371C652.24 120.741 650.63 121.411 648.61 121.411C645.99 121.411 644.31 119.751 644.31 117.591C644.31 115.431 646.06 113.981 649.05 113.961H653.21V113.171C653.21 111.321 652.06 110.191 649.82 110.191C648.43 110.191 647.13 110.721 645.81 111.661L645.02 110.341C646.65 109.261 648.03 108.631 650.19 108.631C653.32 108.631 655.05 110.291 655.07 112.981L655.09 121.341H653.26H653.25ZM653.23 116.991V115.451H649.29C647.18 115.451 646.07 116.101 646.07 117.521C646.07 118.941 647.2 119.851 648.98 119.851C651.12 119.851 652.75 118.791 653.23 116.991Z" fill="white"/>
<path d="M678.75 106.221C674.95 106.221 671.9 109.181 671.9 112.901C671.9 116.621 674.95 119.611 678.75 119.611C680.6 119.611 682.4 118.841 683.73 117.591L684.91 118.861C683.25 120.421 680.99 121.411 678.66 121.411C673.8 121.411 669.96 117.661 669.96 112.901C669.96 108.141 673.85 104.461 678.73 104.461C681.04 104.461 683.27 105.401 684.88 106.911L683.73 108.301C682.43 107.001 680.61 106.211 678.75 106.211V106.221Z" fill="white"/>
<path d="M698.36 121.341V119.371C697.35 120.741 695.74 121.411 693.72 121.411C691.1 121.411 689.42 119.751 689.42 117.591C689.42 115.431 691.17 113.981 694.15 113.961H698.31V113.171C698.31 111.321 697.16 110.191 694.92 110.191C693.53 110.191 692.23 110.721 690.91 111.661L690.12 110.341C691.75 109.261 693.13 108.631 695.29 108.631C698.42 108.631 700.15 110.291 700.17 112.981L700.19 121.341H698.36ZM698.34 116.991V115.451H694.4C692.29 115.451 691.18 116.101 691.18 117.521C691.18 118.941 692.31 119.851 694.09 119.851C696.23 119.851 697.86 118.791 698.34 116.991Z" fill="white"/>
<path d="M708.77 103.511V121.341H706.9V103.511H708.77Z" fill="white"/>
<path d="M717.99 105.071C717.99 105.791 717.46 106.341 716.76 106.341C716.06 106.341 715.53 105.791 715.53 105.071C715.53 104.351 716.06 103.801 716.76 103.801C717.46 103.801 717.99 104.331 717.99 105.071ZM717.71 108.701V121.341H715.86V108.701H717.71Z" fill="white"/>
<path d="M736.31 103.511V121.341H734.44V118.621C733.5 120.401 731.77 121.431 729.51 121.431C725.9 121.431 723.4 118.761 723.4 114.991C723.4 111.221 725.9 108.601 729.48 108.601C731.74 108.601 733.49 109.631 734.43 111.441V103.511H736.3H736.31ZM734.43 115.051C734.43 112.261 732.53 110.241 729.86 110.241C727.19 110.241 725.27 112.261 725.27 115.051C725.27 117.841 727.17 119.831 729.86 119.831C732.55 119.831 734.43 117.841 734.43 115.051Z" fill="white"/>
<path d="M751.26 121.341V119.371C750.25 120.741 748.64 121.411 746.62 121.411C744 121.411 742.32 119.751 742.32 117.591C742.32 115.431 744.07 113.981 747.06 113.961H751.22V113.171C751.22 111.321 750.07 110.191 747.83 110.191C746.44 110.191 745.14 110.721 743.82 111.661L743.03 110.341C744.66 109.261 746.04 108.631 748.2 108.631C751.33 108.631 753.06 110.291 753.08 112.981L753.1 121.341H751.27H751.26ZM751.23 116.991V115.451H747.29C745.18 115.451 744.07 116.101 744.07 117.521C744.07 118.941 745.2 119.851 746.98 119.851C749.12 119.851 750.75 118.791 751.23 116.991Z" fill="white"/>
<path d="M771.3 103.511V121.341H769.43V118.621C768.49 120.401 766.76 121.431 764.5 121.431C760.89 121.431 758.39 118.761 758.39 114.991C758.39 111.221 760.89 108.601 764.47 108.601C766.73 108.601 768.48 109.631 769.42 111.441V103.511H771.29H771.3ZM769.43 115.051C769.43 112.261 767.53 110.241 764.86 110.241C762.19 110.241 760.27 112.261 760.27 115.051C760.27 117.841 762.17 119.831 764.86 119.831C767.55 119.831 769.43 117.841 769.43 115.051Z" fill="white"/>
<path d="M382.46 78.6804C387.64 78.6804 391.22 75.0704 391.22 69.1004V42.4004H402.93V69.1004C402.93 81.2304 395 88.9104 382.4 88.9104C369.8 88.9104 361.61 81.2404 361.61 69.1004V42.4004H373.31V69.1004C373.31 75.0004 377.15 78.6804 382.46 78.6804Z" fill="white"/>
<path d="M446.25 66.0212V88.3912H434.93V69.3712C434.93 65.3712 432.63 62.8812 429.05 62.8812C425.21 62.9512 422.72 65.6412 422.27 69.6412V88.4012H410.88V52.9112H422.27V58.6812C424.7 54.6112 428.67 52.4512 433.72 52.4512C441.27 52.4512 446.26 57.7012 446.26 66.0312L446.25 66.0212Z" fill="white"/>
<path d="M465.32 52.9008V88.3908H454V52.9008H465.32ZM464.87 42.9308C464.87 46.0108 462.7 48.2408 459.69 48.2408C456.68 48.2408 454.51 46.0108 454.51 42.9308C454.51 39.8508 456.68 37.5508 459.69 37.5508C462.7 37.5508 464.87 39.7808 464.87 42.9308Z" fill="white"/>
<path d="M481.06 52.9004L488.29 77.5604L495.58 52.9004H506.96L493.98 88.3904H482.28L469.36 52.9004H481.07H481.06Z" fill="white"/>
<path d="M542.41 73.7607H518.36C519.45 77.7607 522.32 79.9907 526.23 79.9907C529.17 79.9907 532.05 78.7407 534.35 76.3807L540.3 82.4807C536.78 86.5507 531.6 88.7807 525.2 88.7807C513.88 88.7807 506.91 81.6307 506.91 70.8107C506.91 59.9907 514.14 52.5107 524.95 52.5107C537.04 52.5107 543.18 60.8407 542.41 73.7607ZM531.41 67.5307C531.41 63.4607 528.85 60.7107 525.01 60.7107C521.17 60.7107 518.87 63.4607 518.1 67.5307H531.4H531.41Z" fill="white"/>
<path d="M570.82 52.4407V63.1307C564.49 62.4707 560.27 65.3607 559.69 70.2807V88.3807H548.3V52.8907H559.69V58.7907C562.06 54.7207 565.96 52.4307 570.82 52.4307V52.4407Z" fill="white"/>
<path d="M587.91 60.5109C585.99 60.5109 584.65 61.2309 584.65 62.7409C584.65 67.4009 602.82 65.1709 602.75 77.5009C602.75 84.7809 596.54 88.9109 588.1 88.9109C582.28 88.9109 576.71 87.2009 572.49 83.8609L576.07 76.3209C580.04 79.1409 584.51 80.7209 588.35 80.7209C590.46 80.7209 592 80.0009 592 78.5509C592 73.7009 574.15 76.1209 574.15 63.8609C574.15 56.4509 580.23 52.3809 588.35 52.3809C593.34 52.3809 598.39 53.8209 602.74 56.5109L598.9 64.1209C594.61 61.8309 590.71 60.5109 587.9 60.5109H587.91Z" fill="white"/>
<path d="M620.22 52.9008V88.3908H608.9V52.9008H620.22ZM619.77 42.9308C619.77 46.0108 617.6 48.2408 614.59 48.2408C611.58 48.2408 609.41 46.0108 609.41 42.9308C609.41 39.8508 611.58 37.5508 614.59 37.5508C617.6 37.5508 619.77 39.7808 619.77 42.9308Z" fill="white"/>
<path d="M651.44 86.5507C648.95 88.0607 645.49 88.9107 642.1 88.9107C635.38 88.9807 630.52 84.9107 630.52 77.5607V62.3407H625.72V54.6007H630.52V44.7607H641.84V54.6007H650.8V62.3407H641.84V75.7207C641.84 78.3407 642.99 79.5207 644.97 79.4607C646.12 79.4607 647.59 79.0007 649.26 78.2807L651.43 86.5407L651.44 86.5507Z" fill="white"/>
<path d="M687.65 65.3004V88.3904H676.46V84.3904C674.22 87.3404 670.7 88.9104 666.03 88.9104C658.61 88.9104 654.2 84.3204 654.2 77.8204C654.2 71.3204 658.87 67.1904 667.44 67.0604H676.46V66.6704C676.46 63.3204 674.22 61.3604 669.87 61.3604C666.99 61.3604 663.22 62.3404 659.51 64.1804L656.38 56.3104C661.82 53.8204 666.81 52.4404 672.5 52.4404C682.03 52.4404 687.6 57.1604 687.66 65.3004H687.65ZM676.45 76.3804V73.3004H669.67C666.47 73.3004 664.87 74.4804 664.87 76.9704C664.87 79.4604 666.6 80.9704 669.54 80.9704C672.93 80.9704 675.75 79.0704 676.45 76.3804Z" fill="white"/>
<path d="M717.85 52.4407V63.1307C711.52 62.4707 707.3 65.3607 706.72 70.2807V88.3807H695.33V52.8907H706.72V58.7907C709.09 54.7207 712.99 52.4307 717.85 52.4307V52.4407Z" fill="white"/>
<path d="M734.17 52.9008V88.3908H722.85V52.9008H734.17ZM733.72 42.9308C733.72 46.0108 731.55 48.2408 728.54 48.2408C725.53 48.2408 723.36 46.0108 723.36 42.9308C723.36 39.8508 725.53 37.5508 728.54 37.5508C731.55 37.5508 733.72 39.7808 733.72 42.9308Z" fill="white"/>
<path d="M773.64 65.3004V88.3904H762.45V84.3904C760.21 87.3404 756.69 88.9104 752.02 88.9104C744.6 88.9104 740.19 84.3204 740.19 77.8204C740.19 71.3204 744.86 67.1904 753.43 67.0604H762.45V66.6704C762.45 63.3204 760.21 61.3604 755.86 61.3604C752.98 61.3604 749.21 62.3404 745.5 64.1804L742.36 56.3104C747.8 53.8204 752.79 52.4404 758.48 52.4404C768.01 52.4404 773.58 57.1604 773.64 65.3004ZM762.44 76.3804V73.3004H755.66C752.46 73.3004 750.86 74.4804 750.86 76.9704C750.86 79.4604 752.59 80.9704 755.53 80.9704C758.92 80.9704 761.73 79.0704 762.44 76.3804Z" fill="white"/>
<path d="M367.53 4.9502V30.7902H364.58V4.9502H367.53Z" fill="white"/>
<path d="M414.89 18.8405V30.8005H412.01V19.5805C412.01 16.1105 409.94 14.0405 406.51 14.0405C402.67 14.0805 400.31 16.6205 399.98 20.3905V30.8005H397.1V11.3805H399.98V15.6605C401.35 12.7105 403.97 11.3005 407.51 11.2705C412.16 11.2705 414.89 14.1105 414.89 18.8405Z" fill="white"/>
<path d="M448.44 13.6702C446.26 13.6702 444.6 14.4502 444.6 16.2902C444.6 20.6802 455.45 18.4302 455.45 25.4102C455.45 29.2102 452.05 30.9102 448.33 30.9102C445.56 30.9102 442.72 29.9502 440.87 28.1802L441.98 26.0802C443.64 27.6302 446.15 28.5502 448.44 28.5502C450.73 28.5502 452.57 27.6602 452.61 25.7102C452.72 20.9802 441.83 23.3902 441.87 16.5202C441.87 12.8302 445.08 11.2402 448.63 11.2402C450.96 11.2402 453.21 11.9402 454.83 13.0102L453.72 15.2302C452.21 14.2702 450.25 13.6802 448.44 13.6802V13.6702Z" fill="white"/>
<path d="M492.36 29.4701C490.99 30.3901 489.52 30.9101 487.97 30.9101C485.13 30.9501 483.02 29.2501 483.02 25.4101V14.2201H480.21V11.9701H483.02V6.87012H485.86V11.9701H492.02V14.2201H485.86V24.9301C485.86 27.2901 486.78 28.2501 488.44 28.2501C489.44 28.2101 490.47 27.8801 491.54 27.2501L492.35 29.4701H492.36Z" fill="white"/>
<path d="M522.15 5.80081C522.15 6.91081 521.34 7.76082 520.27 7.76082C519.2 7.76082 518.39 6.91081 518.39 5.80081C518.39 4.69081 519.2 3.84082 520.27 3.84082C521.34 3.84082 522.15 4.65081 522.15 5.80081ZM521.71 11.3808V30.8008H518.87V11.3808H521.71Z" fill="white"/>
<path d="M560.91 29.4701C559.54 30.3901 558.07 30.9101 556.52 30.9101C553.68 30.9501 551.57 29.2501 551.57 25.4101V14.2201H548.76V11.9701H551.57V6.87012H554.41V11.9701H560.57V14.2201H554.41V24.9301C554.41 27.2901 555.33 28.2501 556.99 28.2501C557.99 28.2101 559.02 27.8801 560.09 27.2501L560.9 29.4701H560.91Z" fill="white"/>
<path d="M604.28 11.3799V30.7999H601.4V26.4099C600.11 29.4399 597.52 30.8799 594.02 30.9099C589.48 30.9099 586.75 28.0299 586.75 23.3399V11.3799H589.63V22.5999C589.63 26.0699 591.66 28.1399 595.02 28.1399C599.04 28.0699 601.41 25.1099 601.41 20.8999V11.3799H604.29H604.28Z" fill="white"/>
<path d="M641.23 13.8505C637.21 13.8505 634.33 16.8005 634.33 21.0905C634.33 25.3805 637.21 28.3605 641.23 28.3605C643.78 28.3605 645.88 27.4705 647.25 25.8505L648.91 27.5505C647.17 29.6505 644.48 30.9105 641.12 30.9105C635.47 30.9105 631.48 26.8905 631.48 21.0905C631.48 15.2905 635.5 11.2705 641.12 11.2705C644.26 11.2705 646.84 12.3405 648.61 14.1505L647.02 16.1405C645.54 14.7005 643.59 13.8505 641.22 13.8505H641.23Z" fill="white"/>
<path d="M679.58 5.80081C679.58 6.91081 678.77 7.76082 677.7 7.76082C676.63 7.76082 675.82 6.91081 675.82 5.80081C675.82 4.69081 676.63 3.84082 677.7 3.84082C678.77 3.84082 679.58 4.65081 679.58 5.80081ZM679.14 11.3808V30.8008H676.3V11.3808H679.14Z" fill="white"/>
<path d="M726.06 21.0504C726.06 26.8504 721.96 30.9104 716.2 30.9104C710.44 30.9104 706.34 26.8504 706.34 21.0504C706.34 15.2504 710.4 11.2704 716.2 11.2704C722 11.2704 726.06 15.2904 726.06 21.0504ZM709.22 21.0904C709.22 25.4504 712.1 28.4004 716.2 28.4004C720.3 28.4004 723.18 25.4504 723.18 21.0904C723.18 16.7304 720.26 13.8204 716.2 13.8204C712.14 13.8204 709.22 16.8104 709.22 21.0904ZM721.59 4.44035L717.01 8.09036H714.24L718.67 3.11035L721.59 4.44035Z" fill="white"/>
<path d="M771.05 18.8405V30.8005H768.17V19.5805C768.17 16.1105 766.1 14.0405 762.67 14.0405C758.83 14.0805 756.47 16.6205 756.14 20.3905V30.8005H753.26V11.3805H756.14V15.6605C757.51 12.7105 760.13 11.3005 763.67 11.2705C768.32 11.2705 771.05 14.1105 771.05 18.8405Z" fill="white"/>
<path d="M291.96 27.36C291.59 10.81 271.76 4.82002 257.4 2.10002C221.39 -2.97998 183.03 1.77002 146.29 10.52C137.36 12.8 128.26 15.27 119.31 18.06C120.91 16.34 122.19 14.39 122.98 12.36C125.52 5.45001 121.71 -0.00998629 114.79 1.37142e-05C114.24 1.37142e-05 113.88 1.37142e-05 113.34 1.37142e-05C106.79 0.550014 99.7 5.83002 97.16 12.37C94.62 19.1 98.26 24.55 105.35 24.55C108.08 24.55 110.81 23.82 113.35 22.55C115.49 21.48 117.45 20.01 119.09 18.3C128.65 17.43 138.4 17.08 148.48 17.25C180.63 17.23 209.64 21.49 231.57 28.49H231.55L219.92 45.23C217.2 49.05 214.47 53.05 212.66 56.33C210.84 59.43 208.84 62.52 207.39 65.42H207.02C208.11 60.88 209.01 54.87 209.56 47.96C209.92 46.69 209.74 45.96 209.92 45.41L211.18 28.5L184.99 28.33L161.55 70.71L147.2 96.36L161.57 96.53H171.93L185.56 69.6C186.29 67.6 187.74 65.24 188.47 63.24C189.19 61.6 190.29 59.42 191.01 57.24C190.65 59.06 190.29 61.42 190.11 63.6C189.57 65.6 189.57 68.15 189.39 70.51L187.4 96.51L202.67 96.69L220.66 70.5C222.11 68.32 223.93 65.77 225.38 63.41C226.46 61.41 227.93 59.04 228.83 57.41C228.11 59.42 227.93 61.78 227.2 63.78C226.47 65.42 225.93 67.78 225.02 69.78L218.3 96.7H243.22L255.56 38.88C265.17 44.64 271.24 51.25 272.7 58.3C281.07 51.2 287.97 43.02 291.06 34.11C291.6 31.92 291.96 29.93 291.96 28.11V27.38V27.36Z" fill="white"/>
<path d="M142.6 108.86C97.09 108.88 57.86 100.3 36.36 87.5001H41.92L45 79.1301H36.27L33.78 85.8901C25.61 80.5301 20.47 74.4901 19.14 68.0801C10.83 75.1301 3.97 83.2701 0.889999 92.1201C0.359999 94.2901 0 96.2801 0 98.0901V98.8101C0.37 115.26 20.07 121.21 34.35 123.91C70.14 128.95 108.26 124.24 144.77 115.55C153.98 113.19 163.38 110.66 172.6 107.76C162.84 108.67 152.9 109.04 142.6 108.86Z" fill="white"/>
<path d="M72.63 53.8404L75.72 45.1104H69.72H66.99L63.73 53.6604H69.72L72.63 53.8404Z" fill="white"/>
<path d="M109.93 96.3699H113.39L135.75 96.3599L153.01 50.5299L161.56 50.5199H167.38L175.73 28.3299L161.55 28.3399L121.54 28.1699L113.37 49.4499L113 50.3599H113.37L127.37 50.5399L113.38 87.0999L109.93 96.3699Z" fill="white"/>
<path d="M60.0902 62.9403L60.4502 62.0303H60.0902H51.5402L48.4502 70.5803L57.1802 70.7603L60.0902 62.9403Z" fill="white"/>
<path d="M59.9199 87.6698H60.0999L68.6499 87.6598L65.3799 96.2098H69.7399L89.9299 96.1998H91.0199L113.36 37.2698L116.81 28.1798H113.35L91.1699 28.0098L89.8999 31.4698L84.6299 45.2898L89.9099 45.2798H93.7199L90.2699 53.6498H89.9099H81.5399L78.2799 62.0198H69.7299H69.5399L66.2799 70.7498H69.7299H75.0099L71.7299 79.1198H69.7299L63.1899 78.9398L60.0999 86.9398L59.9199 87.6698Z" fill="white"/>
<path d="M330.84 4.20996H327.85V120.96H330.84V4.20996Z" fill="white"/>
<path d="M804.31 5.32031H801.32V123.34H804.31V5.32031Z" fill="white"/>
<path d="M845.6 113.73H829.47L825.92 121.58H824.11L836.61 94.0195H838.39L851.01 121.58H849.2L845.61 113.73H845.6ZM844.85 112.08L837.48 95.9195L830.19 112.08H844.86H844.85Z" fill="white"/>
<path d="M871.46 109.04V121.58H869.8V109.36C869.8 105.14 867.32 102.66 863.1 102.66C858.37 102.78 855.45 105.73 855.1 110.47V121.59H853.44V101.05H855.1V106.29C856.48 102.9 859.4 101.09 863.5 101.01C868.51 101.01 871.46 104.05 871.46 109.05V109.04ZM858.69 96.4698H857.43C857.43 94.1398 858.49 92.8398 860.35 92.8398C862.56 92.8398 863.47 95.4398 865.24 95.4398C866.46 95.4398 867.09 94.6098 867.09 93.1898H868.35C868.35 95.5198 867.29 96.8198 865.43 96.8198C863.18 96.8198 862.32 94.2198 860.54 94.2198C859.32 94.2198 858.69 95.0498 858.69 96.4698Z" fill="white"/>
<path d="M895.07 111.29C895.07 117.36 890.81 121.62 884.94 121.62C879.07 121.62 874.81 117.36 874.81 111.29C874.81 105.22 879.11 101 884.94 101C890.77 101 895.07 105.26 895.07 111.29ZM876.42 111.29C876.42 116.49 880.01 120.08 884.94 120.08C889.87 120.08 893.46 116.49 893.46 111.29C893.46 106.09 889.91 102.58 884.94 102.58C879.97 102.58 876.42 106.17 876.42 111.29Z" fill="white"/>
<path d="M903.9 102.5C901.02 102.5 898.78 103.6 898.78 106.05C898.78 111.57 910.76 108.85 910.76 116.1C910.76 119.93 907.33 121.62 903.62 121.62C900.74 121.62 897.98 120.6 896.09 118.78L896.84 117.52C898.61 119.18 901.1 120.12 903.7 120.12C906.58 120.12 909.06 118.98 909.18 116.37C909.34 110.58 897.19 113.22 897.19 106.16C897.19 102.57 900.3 100.99 903.93 100.99C906.22 100.99 908.19 101.62 909.8 102.61L909.09 103.95C907.67 103.04 905.86 102.49 903.89 102.49L903.9 102.5Z" fill="white"/>
<path d="M885.4 6.07031C879.31 6.07031 874.26 8.12031 870.33 12.0803C871.47 13.8803 872.39 15.8503 873.04 17.9503C873.36 18.9903 873.57 19.9603 873.77 20.9103C873.85 21.3203 873.94 21.7303 874.04 22.1403L874.15 22.6203L874.18 27.2903L874.06 27.8003C873.93 28.3303 873.83 28.8703 873.71 29.4303C873.47 30.6203 873.22 31.8703 872.79 33.1703C871.22 38.0403 868.31 42.3603 864.15 46.0603C869.04 51.0003 871.96 55.7603 873.34 60.9803C873.54 61.7203 873.69 62.4603 873.84 63.2003C873.9 63.5003 873.96 63.8003 874.03 64.0903L874.12 64.5403V69.3403L873.91 70.3003C873.85 70.5803 873.79 70.8403 873.74 71.1203C873.15 74.3903 871.9 77.4703 870.08 80.2003C874.03 84.3503 879.17 86.5203 885.4 86.5203C901.37 86.5203 910.25 72.1103 910.25 46.2403C910.25 20.3703 901.38 6.07031 885.4 6.07031ZM885.4 74.8203C876.89 74.8203 872.79 65.8603 872.79 46.2403C872.79 26.6203 876.89 17.7603 885.4 17.7603C893.91 17.7603 897.91 26.6103 897.91 46.2403C897.91 65.8703 893.81 74.8203 885.4 74.8203Z" fill="white" stroke="white" stroke-width="0.93" stroke-miterlimit="10"/>
<path d="M869.87 23.14C869.56 21.84 869.35 20.5101 868.96 19.2301C866.1 10.0201 857.08 4.00005 846.6 4.26005C836.9 4.50005 828.17 11.18 825.88 20.19C824.3 26.43 825.84 32.15 829.54 37.41C830.86 39.29 832.49 40.99 834 42.75L834.73 43.6001C835.12 44.0501 835.82 44.13 836.31 43.78L844.26 38.16C844.82 37.77 844.9 37.02 844.44 36.53C843.02 35.02 841.59 33.56 840.31 31.99C838.58 29.86 837.39 27.4801 837.44 24.7001C837.53 19.9601 841.74 15.8901 846.88 15.5901C852.09 15.2801 856.81 18.79 857.55 23.52C858.08 26.91 856.93 29.8301 854.73 32.4601C852.43 35.2001 849.5 37.3101 846.61 39.4501C842.95 42.1601 839.19 44.76 835.6 47.55C831.57 50.68 828.39 54.4201 826.64 59.1201C823.19 68.3901 826.37 78.2401 834.6 83.7401C847.94 92.6601 866.87 85.41 869.54 70.36C869.63 69.86 869.75 69.3701 869.86 68.8801V65C869.65 64.03 869.48 63.0501 869.23 62.0901C867.84 56.8401 864.65 52.5701 860.74 48.7001L860.37 48.33C859.98 47.95 859.35 47.9 858.9 48.22C856.12 50.2 853.43 52.12 850.68 54.08C850.24 54.39 850.21 55.0001 850.6 55.3501C852.69 57.2201 854.61 59.2201 856.02 61.6001C857.24 63.6601 857.97 65.8201 857.59 68.2401C856.85 73.0301 852.2 76.57 846.93 76.28C841.81 76 837.59 71.95 837.47 67.19C837.38 63.88 838.87 61.15 841.05 58.67C843.29 56.13 846.05 54.14 848.81 52.14C852.63 49.37 856.57 46.71 860.22 43.75C864.2 40.53 867.2 36.5801 868.75 31.8101C869.28 30.1701 869.53 28.45 869.92 26.78C869.92 25.55 869.9 24.36 869.9 23.13L869.87 23.14Z" fill="white"/>
</svg>
